<svg version="1.1" id="Layer_1" xmlns="http://www.w3.org/2000/svg" xmlns:xlink="http://www.w3.org/1999/xlink" x="0px" y="0px"
	 width="100%" viewBox="0 0 1152 747" enable-background="new 0 0 1152 747" xml:space="preserve">
<path fill="#FBFBFB" opacity="1.000000" stroke="none" 
	d="
M60.000000,1.000000 
	C394.364258,1.000000 728.728516,1.000000 1063.546387,1.468657 
	C1064.000000,108.516495 1064.008301,215.095688 1063.941040,321.674835 
	C1063.939697,323.825775 1063.057495,325.976196 1062.406982,327.776855 
	C1060.793335,310.605377 1053.922241,296.260406 1040.059570,286.706207 
	C1026.295044,277.219604 1011.551147,269.103821 996.950317,260.896393 
	C984.857605,254.098846 971.779175,251.074402 957.692932,251.718597 
	C943.908569,252.348969 929.992004,251.392914 916.710083,256.151337 
	C909.377625,258.778259 902.247253,261.965210 894.944153,264.679993 
	C890.524902,266.322784 886.003601,267.266022 881.534973,264.440979 
	C867.858948,255.795166 854.200623,247.200577 845.617065,232.728088 
	C842.529663,227.522522 837.513733,224.840240 831.805298,222.732040 
	C821.408142,218.892166 811.092529,214.699493 801.119934,209.874634 
	C787.528687,203.299072 774.151245,196.243759 760.960144,188.895157 
	C754.329407,185.201294 748.074524,180.709534 742.085876,176.021362 
	C736.196777,171.411133 731.100830,165.790405 725.229980,161.153580 
	C713.098328,151.571945 702.817322,140.407776 693.840393,127.825783 
	C679.622803,107.898521 660.813110,92.342155 641.127686,78.550415 
	C620.924561,64.395958 598.658142,53.190342 577.321045,40.649570 
	C557.577942,29.045744 536.282654,27.787193 515.132507,34.064713 
	C500.484619,38.412334 486.861359,46.186287 472.737976,52.332172 
	C441.478088,65.935104 415.532928,86.392036 393.311707,112.155479 
	C376.035919,132.185226 361.244812,153.226288 355.703949,179.738281 
	C354.327972,186.322098 351.280701,192.571884 348.847107,198.915955 
	C344.942230,209.095703 337.666382,215.345612 327.060486,218.224747 
	C319.562653,220.260162 312.194794,222.904694 304.964355,225.770538 
	C281.852112,234.931274 259.072601,244.991104 235.704346,253.429031 
	C213.876144,261.310883 191.446182,264.469574 169.203186,253.946457 
	C152.777618,246.175537 135.405884,246.517914 117.823524,247.495499 
	C106.896416,248.103043 97.019310,251.470993 87.503853,256.408203 
	C86.502945,256.927521 85.861481,258.139648 85.053253,259.030365 
	C86.243454,259.539520 87.445068,260.517548 88.622177,260.488922 
	C114.228447,259.865723 137.444473,266.997742 158.601761,281.381348 
	C167.802567,287.636475 177.118362,293.799194 186.814453,299.231934 
	C203.541672,308.604279 221.260391,309.436859 239.361130,303.542358 
	C246.297943,301.283356 253.120804,298.670593 260.074371,296.467712 
	C273.528259,292.205505 284.088348,291.404633 292.208069,293.664032 
	C266.736145,300.151917 241.007446,306.705200 214.621201,313.425934 
	C226.638046,323.377258 238.686432,332.730927 253.236694,337.900085 
	C260.984558,340.652618 268.970551,339.813202 276.382782,335.640900 
	C284.277954,331.196777 292.243774,326.878143 300.187317,322.500000 
	C303.456696,326.815918 306.049316,330.715790 309.121796,334.191437 
	C314.865753,340.689056 316.884888,348.345367 316.972565,356.740753 
	C316.995239,358.907043 317.070923,361.074554 317.024933,363.239471 
	C316.852966,371.336517 319.669617,378.165802 325.458801,383.842957 
	C329.145203,387.458038 332.565704,391.349701 336.327240,394.881042 
	C339.920746,398.254639 340.051178,401.451630 337.121826,405.348633 
	C333.430450,410.259369 329.782013,415.250000 326.659302,420.528137 
	C323.010803,426.694977 322.281128,433.514252 327.195770,439.199188 
	C334.656586,447.829315 337.033875,457.801849 336.963562,468.746887 
	C336.920746,475.406525 340.260834,479.151611 346.373047,481.826447 
	C352.177673,484.366638 358.217438,487.529541 362.565826,491.972748 
	C369.560669,499.120117 377.539673,502.056702 387.126129,501.997101 
	C391.124878,501.972229 395.124451,502.116516 399.123596,502.113770 
	C406.198395,502.108917 411.535492,499.269806 414.969788,492.835419 
	C418.230438,486.726318 421.839386,480.803101 425.578278,474.306274 
	C429.486511,479.203552 432.889587,483.675781 436.508057,487.966339 
	C453.184357,507.739929 468.799683,528.166626 478.079163,552.708923 
	C479.172913,555.601624 481.099182,558.255188 482.985504,560.758972 
	C490.284119,570.446594 508.490997,575.449280 518.869812,561.971497 
	C521.202271,558.942627 524.081360,556.336243 526.433533,553.320618 
	C534.573486,542.884888 545.385925,537.457825 558.335083,535.851562 
	C566.678345,534.816467 575.015686,533.732727 583.450684,532.658752 
	C581.231995,510.776947 570.037415,494.864227 552.480774,483.415833 
	C538.899841,474.559967 527.652527,476.656006 517.377441,489.215881 
	C513.209045,494.311066 509.927765,500.131989 506.276703,505.572205 
	C488.195953,484.635132 483.700958,458.182159 477.566193,432.156982 
	C491.539551,427.541321 498.590668,415.736816 507.267792,405.779144 
	C507.616760,406.001251 507.965729,406.223328 508.314728,406.445404 
	C507.218994,409.051483 506.123291,411.657562 504.957794,414.429596 
	C519.959351,422.773407 534.673462,431.497528 549.918823,439.165466 
	C555.848083,442.147705 562.975769,442.747314 570.656067,444.713470 
	C569.061707,438.764832 567.942078,434.587463 566.822449,430.410065 
	C567.373474,430.154602 567.924500,429.899109 568.475525,429.643616 
	C572.029358,435.919312 576.116089,441.959839 579.013672,448.525208 
	C583.493347,458.675171 587.609009,469.038391 591.028503,479.586884 
	C593.721741,487.895264 595.321472,496.581116 597.065063,505.168701 
	C599.306641,516.209534 600.735046,527.434326 603.392578,538.366272 
	C605.814514,548.328796 609.604614,557.950378 612.435730,567.824219 
	C615.481445,578.446655 621.537842,584.184753 631.970337,585.787109 
	C642.447449,587.396301 650.652710,584.263611 655.972412,574.729614 
	C657.105469,572.698914 658.336731,570.719543 659.593018,568.761597 
	C666.663147,557.742371 676.869751,550.120239 688.173035,542.022644 
	C696.294189,560.163391 704.018921,577.776001 712.052307,595.246765 
	C718.136780,608.479004 724.301514,621.694214 731.049255,634.593384 
	C734.449951,641.094177 741.040161,643.372009 748.219666,644.086975 
	C755.343689,644.796326 761.124573,641.666504 766.897949,638.310547 
	C779.073730,631.232910 792.498047,631.568787 804.294800,631.003967 
	C808.425171,652.996521 812.514648,674.013916 816.270020,695.090881 
	C818.111450,705.426086 824.749146,710.769775 833.989746,713.956055 
	C843.395813,717.199402 852.693542,720.775696 862.173950,723.779663 
	C874.118713,727.564331 886.403503,728.474121 899.380066,727.460266 
	C898.428040,724.619507 897.711365,722.445129 896.971436,720.278625 
	C890.764465,702.104980 886.818787,683.129211 877.288086,666.123413 
	C875.501404,662.935303 874.001770,661.367188 870.182495,661.790283 
	C862.265930,662.667114 854.299133,663.091248 846.046326,663.725037 
	C845.799500,663.135376 845.388306,662.423035 845.197021,661.655884 
	C842.020264,648.911621 841.192444,636.091797 843.331970,623.045349 
	C845.114441,612.175842 846.269897,601.199829 842.920837,590.384949 
	C841.128845,584.598328 838.112976,579.529175 831.565491,578.351990 
	C818.040100,575.920227 804.718018,575.611755 792.547913,583.616211 
	C791.545288,584.275696 790.335693,584.620422 788.588684,585.390747 
	C788.971863,582.547058 789.066284,580.382202 789.575134,578.319519 
	C792.037964,568.336121 794.362793,558.306946 797.255066,548.446106 
	C798.640442,543.722778 796.724426,541.660645 792.861084,540.163147 
	C788.206360,538.358826 783.561707,536.528503 778.912659,534.709473 
	C783.977234,533.967712 788.811462,533.796936 793.629761,534.001099 
	C806.000000,534.525146 816.840515,530.732361 826.437927,523.002258 
	C832.141663,518.408203 838.107117,514.133118 843.718262,509.432159 
	C847.926880,505.906158 851.223389,506.472870 855.622681,509.584198 
	C867.952881,518.304443 880.835815,526.241211 893.208923,534.903687 
	C897.719482,538.061584 902.373901,541.774414 905.284912,546.310730 
	C913.260132,558.738647 920.877869,571.463135 927.645264,584.581848 
	C936.014282,600.805176 945.068909,617.401062 941.805847,636.531067 
	C938.846313,653.881653 944.658020,667.157898 956.149048,679.524841 
	C967.209534,691.428528 964.071960,690.482422 958.453674,700.962952 
	C951.927002,713.138062 953.913086,724.809631 964.738159,733.503723 
	C969.727966,737.511230 975.581604,740.443176 980.765503,744.183838 
	C978.352295,744.669861 976.217163,744.979431 974.082031,744.979553 
	C671.818665,745.001038 369.555328,745.001465 67.291969,744.992065 
	C59.247955,744.991821 60.007370,745.835144 60.007088,737.829407 
	C59.998402,492.219604 60.000000,246.609802 60.000000,1.000000 
z"/>
<path fill="#FFFFFF" opacity="1.000000" stroke="none" 
	d="
M1067.000000,1.000000 
	C1095.653076,1.000000 1124.306152,1.000000 1152.953369,1.000002 
	C1152.947510,250.000000 1152.947510,499.000000 1152.947510,748.000000 
	C1124.241821,748.000000 1095.588745,748.000000 1066.520752,747.584534 
	C1066.403931,744.548767 1066.962524,741.928467 1066.963013,739.308105 
	C1067.002808,493.205414 1067.000000,247.102707 1067.000000,1.000000 
z"/>
<path fill="#FFFFFF" opacity="1.000000" stroke="none" 
	d="
M1066.625000,1.000000 
	C1067.000000,247.102707 1067.002808,493.205414 1066.963013,739.308105 
	C1066.962524,741.928467 1066.403931,744.548767 1066.052979,747.584534 
	C711.083008,748.000000 356.166046,748.000000 1.124546,748.000000 
	C1.124546,499.000031 1.124546,250.000031 1.124546,1.000000 
	C20.404945,1.000000 39.733814,1.000000 59.531342,1.000000 
	C60.000000,246.609802 59.998402,492.219604 60.007088,737.829407 
	C60.007370,745.835144 59.247955,744.991821 67.291969,744.992065 
	C369.555328,745.001465 671.818665,745.001038 974.082031,744.979553 
	C976.217163,744.979431 978.352295,744.669861 981.157104,744.355469 
	C987.012756,744.408447 992.198792,744.610901 997.893799,744.864868 
	C1018.217041,744.944336 1038.034912,744.770630 1057.843018,745.135620 
	C1063.079346,745.232056 1064.113892,743.626160 1064.107056,738.699097 
	C1063.964966,636.295105 1064.000000,533.890869 1064.000000,431.486664 
	C1064.000000,405.011444 1064.032227,378.536072 1063.924438,352.061279 
	C1063.917603,350.370026 1062.825317,348.683136 1062.196045,346.582031 
	C1062.298096,340.155487 1062.442139,334.141174 1062.586182,328.126862 
	C1063.057495,325.976196 1063.939697,323.825775 1063.941040,321.674835 
	C1064.008301,215.095688 1064.000000,108.516495 1064.000000,1.468657 
	C1064.750000,1.000000 1065.500000,1.000000 1066.625000,1.000000 
z"/>
<path fill="#0E0C0D" opacity="1.000000" stroke="none" 
	d="
M1062.406982,327.776855 
	C1062.442139,334.141174 1062.298096,340.155487 1062.084473,346.995209 
	C1060.230835,363.698486 1053.745361,376.734833 1039.680420,385.350250 
	C1032.880859,389.515320 1026.142334,393.801300 1019.581299,398.329651 
	C1012.073120,403.511688 1008.794800,410.506104 1010.582825,419.868896 
	C1011.692322,425.678680 1011.826843,431.674652 1012.451599,438.131134 
	C1002.114441,436.965424 993.078491,434.635620 986.161377,427.431824 
	C975.852905,416.696259 976.969971,399.600433 988.663269,390.402985 
	C993.615051,386.508179 999.047363,383.213867 1004.333557,379.757172 
	C1013.281860,373.905731 1020.546448,366.410767 1025.787231,357.137482 
	C1032.865234,344.613098 1030.580688,331.915497 1019.579773,322.650543 
	C1016.053284,319.680603 1012.070435,317.099274 1007.958618,315.002380 
	C981.419495,301.468262 954.429321,301.952026 927.043762,313.203796 
	C928.421509,315.744263 929.959595,318.470886 931.397034,321.249573 
	C939.096130,336.131958 946.933228,350.946014 954.412903,365.938202 
	C964.460571,386.077667 969.701965,407.252319 968.066040,429.990387 
	C967.146484,442.771118 965.478394,455.803223 966.972534,468.386597 
	C969.768127,491.929413 974.366577,515.275818 978.760925,538.601013 
	C980.192810,546.201660 983.074768,553.572632 985.731812,560.889465 
	C990.542847,574.137878 992.614258,587.820007 993.773560,601.807922 
	C995.365540,621.015747 997.893066,640.145325 999.544861,659.349304 
	C1000.262024,667.687195 1002.728821,675.222107 1006.673767,682.450806 
	C1008.661133,686.092224 1010.586670,689.780151 1012.301025,693.555664 
	C1020.712219,712.079773 1014.336487,733.874817 997.384827,744.813293 
	C992.198792,744.610901 987.012756,744.408447 981.435181,744.034424 
	C975.581604,740.443176 969.727966,737.511230 964.738159,733.503723 
	C953.913086,724.809631 951.927002,713.138062 958.453674,700.962952 
	C964.071960,690.482422 967.209534,691.428528 956.149048,679.524841 
	C944.658020,667.157898 938.846313,653.881653 941.805847,636.531067 
	C945.068909,617.401062 936.014282,600.805176 927.645264,584.581848 
	C920.877869,571.463135 913.260132,558.738647 905.284912,546.310730 
	C902.373901,541.774414 897.719482,538.061584 893.208923,534.903687 
	C880.835815,526.241211 867.952881,518.304443 855.622681,509.584198 
	C851.223389,506.472870 847.926880,505.906158 843.718262,509.432159 
	C838.107117,514.133118 832.141663,518.408203 826.437927,523.002258 
	C816.840515,530.732361 806.000000,534.525146 793.629761,534.001099 
	C788.811462,533.796936 783.977234,533.967712 778.912659,534.709473 
	C783.561707,536.528503 788.206360,538.358826 792.861084,540.163147 
	C796.724426,541.660645 798.640442,543.722778 797.255066,548.446106 
	C794.362793,558.306946 792.037964,568.336121 789.575134,578.319519 
	C789.066284,580.382202 788.971863,582.547058 788.588684,585.390747 
	C790.335693,584.620422 791.545288,584.275696 792.547913,583.616211 
	C804.718018,575.611755 818.040100,575.920227 831.565491,578.351990 
	C838.112976,579.529175 841.128845,584.598328 842.920837,590.384949 
	C846.269897,601.199829 845.114441,612.175842 843.331970,623.045349 
	C841.192444,636.091797 842.020264,648.911621 845.197021,661.655884 
	C845.388306,662.423035 845.799500,663.135376 846.046326,663.725037 
	C854.299133,663.091248 862.265930,662.667114 870.182495,661.790283 
	C874.001770,661.367188 875.501404,662.935303 877.288086,666.123413 
	C886.818787,683.129211 890.764465,702.104980 896.971436,720.278625 
	C897.711365,722.445129 898.428040,724.619507 899.380066,727.460266 
	C886.403503,728.474121 874.118713,727.564331 862.173950,723.779663 
	C852.693542,720.775696 843.395813,717.199402 833.989746,713.956055 
	C824.749146,710.769775 818.111450,705.426086 816.270020,695.090881 
	C812.514648,674.013916 808.425171,652.996521 804.294800,631.003967 
	C792.498047,631.568787 779.073730,631.232910 766.897949,638.310547 
	C761.124573,641.666504 755.343689,644.796326 748.219666,644.086975 
	C741.040161,643.372009 734.449951,641.094177 731.049255,634.593384 
	C724.301514,621.694214 718.136780,608.479004 712.052307,595.246765 
	C704.018921,577.776001 696.294189,560.163391 688.173035,542.022644 
	C676.869751,550.120239 666.663147,557.742371 659.593018,568.761597 
	C658.336731,570.719543 657.105469,572.698914 655.972412,574.729614 
	C650.652710,584.263611 642.447449,587.396301 631.970337,585.787109 
	C621.537842,584.184753 615.481445,578.446655 612.435730,567.824219 
	C609.604614,557.950378 605.814514,548.328796 603.392578,538.366272 
	C600.735046,527.434326 599.306641,516.209534 597.065063,505.168701 
	C595.321472,496.581116 593.721741,487.895264 591.028503,479.586884 
	C587.609009,469.038391 583.493347,458.675171 579.013672,448.525208 
	C576.116089,441.959839 572.029358,435.919312 568.475525,429.643616 
	C567.924500,429.899109 567.373474,430.154602 566.822449,430.410065 
	C567.942078,434.587463 569.061707,438.764832 570.656067,444.713470 
	C562.975769,442.747314 555.848083,442.147705 549.918823,439.165466 
	C534.673462,431.497528 519.959351,422.773407 504.957794,414.429596 
	C506.123291,411.657562 507.218994,409.051483 508.314728,406.445404 
	C507.965729,406.223328 507.616760,406.001251 507.267792,405.779144 
	C498.590668,415.736816 491.539551,427.541321 477.566193,432.156982 
	C483.700958,458.182159 488.195953,484.635132 506.276703,505.572205 
	C509.927765,500.131989 513.209045,494.311066 517.377441,489.215881 
	C527.652527,476.656006 538.899841,474.559967 552.480774,483.415833 
	C570.037415,494.864227 581.231995,510.776947 583.450684,532.658752 
	C575.015686,533.732727 566.678345,534.816467 558.335083,535.851562 
	C545.385925,537.457825 534.573486,542.884888 526.433533,553.320618 
	C524.081360,556.336243 521.202271,558.942627 518.869812,561.971497 
	C508.490997,575.449280 490.284119,570.446594 482.985504,560.758972 
	C481.099182,558.255188 479.172913,555.601624 478.079163,552.708923 
	C468.799683,528.166626 453.184357,507.739929 436.508057,487.966339 
	C432.889587,483.675781 429.486511,479.203552 425.578278,474.306274 
	C421.839386,480.803101 418.230438,486.726318 414.969788,492.835419 
	C411.535492,499.269806 406.198395,502.108917 399.123596,502.113770 
	C395.124451,502.116516 391.124878,501.972229 387.126129,501.997101 
	C377.539673,502.056702 369.560669,499.120117 362.565826,491.972748 
	C358.217438,487.529541 352.177673,484.366638 346.373047,481.826447 
	C340.260834,479.151611 336.920746,475.406525 336.963562,468.746887 
	C337.033875,457.801849 334.656586,447.829315 327.195770,439.199188 
	C322.281128,433.514252 323.010803,426.694977 326.659302,420.528137 
	C329.782013,415.250000 333.430450,410.259369 337.121826,405.348633 
	C340.051178,401.451630 339.920746,398.254639 336.327240,394.881042 
	C332.565704,391.349701 329.145203,387.458038 325.458801,383.842957 
	C319.669617,378.165802 316.852966,371.336517 317.024933,363.239471 
	C317.070923,361.074554 316.995239,358.907043 316.972565,356.740753 
	C316.884888,348.345367 314.865753,340.689056 309.121796,334.191437 
	C306.049316,330.715790 303.456696,326.815918 300.187317,322.500000 
	C292.243774,326.878143 284.277954,331.196777 276.382782,335.640900 
	C268.970551,339.813202 260.984558,340.652618 253.236694,337.900085 
	C238.686432,332.730927 226.638046,323.377258 214.621201,313.425934 
	C241.007446,306.705200 266.736145,300.151917 292.208069,293.664032 
	C284.088348,291.404633 273.528259,292.205505 260.074371,296.467712 
	C253.120804,298.670593 246.297943,301.283356 239.361130,303.542358 
	C221.260391,309.436859 203.541672,308.604279 186.814453,299.231934 
	C177.118362,293.799194 167.802567,287.636475 158.601761,281.381348 
	C137.444473,266.997742 114.228447,259.865723 88.622177,260.488922 
	C87.445068,260.517548 86.243454,259.539520 85.053253,259.030365 
	C85.861481,258.139648 86.502945,256.927521 87.503853,256.408203 
	C97.019310,251.470993 106.896416,248.103043 117.823524,247.495499 
	C135.405884,246.517914 152.777618,246.175537 169.203186,253.946457 
	C191.446182,264.469574 213.876144,261.310883 235.704346,253.429031 
	C259.072601,244.991104 281.852112,234.931274 304.964355,225.770538 
	C312.194794,222.904694 319.562653,220.260162 327.060486,218.224747 
	C337.666382,215.345612 344.942230,209.095703 348.847107,198.915955 
	C351.280701,192.571884 354.327972,186.322098 355.703949,179.738281 
	C361.244812,153.226288 376.035919,132.185226 393.311707,112.155479 
	C415.532928,86.392036 441.478088,65.935104 472.737976,52.332172 
	C486.861359,46.186287 500.484619,38.412334 515.132507,34.064713 
	C536.282654,27.787193 557.577942,29.045744 577.321045,40.649570 
	C598.658142,53.190342 620.924561,64.395958 641.127686,78.550415 
	C660.813110,92.342155 679.622803,107.898521 693.840393,127.825783 
	C702.817322,140.407776 713.098328,151.571945 725.229980,161.153580 
	C731.100830,165.790405 736.196777,171.411133 742.085876,176.021362 
	C748.074524,180.709534 754.329407,185.201294 760.960144,188.895157 
	C774.151245,196.243759 787.528687,203.299072 801.119934,209.874634 
	C811.092529,214.699493 821.408142,218.892166 831.805298,222.732040 
	C837.513733,224.840240 842.529663,227.522522 845.617065,232.728088 
	C854.200623,247.200577 867.858948,255.795166 881.534973,264.440979 
	C886.003601,267.266022 890.524902,266.322784 894.944153,264.679993 
	C902.247253,261.965210 909.377625,258.778259 916.710083,256.151337 
	C929.992004,251.392914 943.908569,252.348969 957.692932,251.718597 
	C971.779175,251.074402 984.857605,254.098846 996.950317,260.896393 
	C1011.551147,269.103821 1026.295044,277.219604 1040.059570,286.706207 
	C1053.922241,296.260406 1060.793335,310.605377 1062.406982,327.776855 
M509.837402,328.026917 
	C514.865784,324.578918 519.673035,320.929352 521.731689,314.343506 
	C519.383850,314.547363 516.622620,314.806824 515.465210,316.305176 
	C512.784790,319.775116 510.880310,323.844452 508.353210,327.976349 
	C508.414642,328.219360 508.476074,328.462402 508.537537,328.705414 
	C508.747803,328.530884 508.958099,328.356354 509.837402,328.026917 
M529.894165,139.890823 
	C529.894165,139.890823 530.124756,140.113037 529.820923,140.712387 
	C527.933960,142.345825 526.068481,144.004898 524.156494,145.608414 
	C513.367249,154.656815 505.540771,165.132523 507.023041,180.275253 
	C507.987579,190.128601 513.551880,197.930267 518.305786,206.099442 
	C518.588074,206.584564 519.463318,207.153442 519.912292,207.047333 
	C525.205872,205.796280 530.689026,204.935425 535.633179,202.825684 
	C537.549866,202.007782 538.329102,198.337387 539.440063,195.882095 
	C540.212219,194.175522 540.666138,192.324997 541.485718,189.869156 
	C543.903015,192.923874 545.823120,195.350296 548.563293,198.812958 
	C557.590393,186.159668 566.240662,174.034637 575.151184,161.544846 
	C581.130066,172.061707 582.301392,182.232986 581.024231,192.928391 
	C578.893372,210.773117 571.556335,225.085220 554.448608,232.849686 
	C546.577454,236.422028 538.691223,240.035980 530.566101,242.944748 
	C525.871521,244.625412 525.354919,247.204880 526.478271,251.284012 
	C528.590271,258.953094 530.574707,266.657349 532.727600,274.782623 
	C531.310852,275.169159 529.775208,275.683289 528.200012,276.002686 
	C516.422607,278.390808 505.150208,276.370758 493.881714,272.675842 
	C488.785797,271.004883 483.226044,270.532928 477.829285,270.069122 
	C474.115540,269.749939 471.175140,271.497375 469.693451,275.341156 
	C467.900787,279.991516 465.910400,284.572021 463.840729,289.107513 
	C461.405487,294.444031 458.793396,299.699829 455.937134,305.660217 
	C453.032562,302.448792 450.980469,300.179871 449.053070,298.048798 
	C441.896454,302.948334 439.185181,309.033997 439.908661,317.489929 
	C440.938934,329.532013 438.189240,333.069519 426.900513,338.088135 
	C424.962799,338.949524 423.071899,339.916138 420.108490,341.338531 
	C423.717804,344.018280 426.337830,347.272522 429.508789,347.950775 
	C432.699127,348.633148 436.437500,346.753265 439.741455,346.038208 
	C436.874084,352.027008 432.315125,354.447906 425.522034,353.626556 
	C419.629578,352.914124 413.711517,352.413483 407.001007,351.738342 
	C408.868439,355.364594 410.338959,358.220093 411.876678,361.206116 
	C405.265411,362.142975 399.132599,363.012024 392.118652,364.005951 
	C396.724548,372.965698 390.591888,376.223663 385.371857,380.588440 
	C382.152771,375.743683 379.137268,371.205322 375.767120,366.133240 
	C385.268127,364.023926 392.581635,359.716034 396.398346,350.275909 
	C393.512512,348.653412 390.874908,346.913452 388.034119,345.619568 
	C377.827393,340.970551 369.859711,346.177917 370.040100,357.329834 
	C370.074799,359.475342 370.523071,361.611481 370.718079,363.757629 
	C371.364960,370.876923 371.983337,377.998810 372.612701,385.119720 
	C371.952820,385.239838 371.292938,385.359955 370.633057,385.480072 
	C368.458984,379.047028 366.284882,372.614014 364.110809,366.181000 
	C363.569763,366.209991 363.028717,366.238983 362.487671,366.267975 
	C361.918091,370.627716 360.831238,374.993683 360.883972,379.345886 
	C361.002716,389.153320 361.434967,398.973969 362.218781,408.750854 
	C362.836517,416.455963 365.759460,423.452484 371.005005,430.639709 
	C375.322388,426.034698 379.613770,422.101166 383.105682,417.553741 
	C386.676392,412.903748 389.463043,407.651703 392.874146,402.215027 
	C395.696747,407.537476 398.304108,412.454102 401.016846,417.569366 
	C393.916382,420.820923 386.138397,422.780365 384.527893,431.967499 
	C384.701233,431.996857 384.874573,432.026215 385.797668,432.055664 
	C391.204102,429.965302 396.539368,427.658325 402.038788,425.850891 
	C406.716736,424.313446 408.145966,427.734161 409.099182,431.364105 
	C410.015320,434.852844 411.791290,438.417786 406.139404,439.929413 
	C401.085266,441.281158 396.216736,443.326996 390.929840,445.184814 
	C394.329559,449.742493 398.454285,448.001251 402.034760,447.902191 
	C405.644806,447.802307 409.960236,447.948914 412.627930,446.078339 
	C415.340424,444.176422 416.419525,439.945068 418.213898,436.733765 
	C418.805389,438.191132 418.979553,439.460175 418.542938,440.463409 
	C415.049103,448.491638 411.288483,456.406372 407.911011,464.481934 
	C404.920441,471.632507 399.793060,475.570465 392.112885,476.286438 
	C391.997101,476.297241 391.923004,476.755585 391.582642,477.663391 
	C395.230347,478.305542 398.732635,479.124115 402.281982,479.510437 
	C414.754517,480.867981 423.174377,476.315094 426.363434,465.726562 
	C427.658844,461.425476 428.149536,456.413971 427.326721,452.041779 
	C425.682526,443.305206 422.879181,434.786774 420.395172,425.588226 
	C429.731689,425.688995 430.263306,418.747925 430.783752,411.909271 
	C430.907532,410.283295 430.328766,408.616028 430.305969,406.964539 
	C430.238525,402.076172 428.824066,397.182556 431.978912,392.460907 
	C436.115234,386.270325 439.672974,379.693481 443.491241,373.289764 
	C444.081299,372.300171 444.733398,371.347565 445.356781,370.377869 
	C445.285706,374.291687 444.373444,377.804626 442.976868,381.113098 
	C439.075256,390.355743 436.077545,399.677795 435.616882,409.914398 
	C435.380280,415.172485 433.249176,420.515808 431.154144,425.474091 
	C428.833679,430.965881 428.465240,436.181671 430.493622,442.369812 
	C439.936981,434.400970 447.405365,425.704620 451.082245,414.276733 
	C451.757385,412.178345 451.693451,409.654022 451.312042,407.439758 
	C450.242249,401.228851 448.487946,395.120789 447.689819,388.884308 
	C447.274567,385.639618 448.307251,382.209564 448.685883,378.863251 
	C449.226654,378.922638 449.767395,378.982025 450.308167,379.041412 
	C450.308167,382.946228 450.308167,386.851074 450.308167,392.218689 
	C456.487427,388.534515 461.997253,385.835785 466.842102,382.240875 
	C477.445496,374.373077 483.621613,364.153351 483.082336,350.309662 
	C482.628662,338.664398 483.440796,326.960571 482.764313,315.336670 
	C482.355408,308.310883 480.459229,301.315155 478.690216,294.445251 
	C477.552704,290.027832 475.432281,285.863464 473.594269,281.183075 
	C482.380951,278.294250 490.220551,277.567200 498.682159,281.209991 
	C518.458740,289.724060 538.008118,289.913788 556.827026,277.867859 
	C560.208801,275.703247 564.286621,274.626038 568.007080,273.011261 
	C568.007080,273.011261 567.966309,272.981567 567.784790,273.642670 
	C560.598145,284.392670 552.754517,294.717041 548.411987,307.174194 
	C546.965881,311.322510 544.632629,315.441742 541.762634,318.758942 
	C534.273926,327.414337 526.253357,335.608948 518.469543,344.010162 
	C516.622192,346.004089 514.871765,348.087769 512.758667,350.492096 
	C528.204712,352.318542 546.995972,343.950562 557.676453,331.580536 
	C564.727173,323.414459 572.081482,315.468964 579.802063,307.939667 
	C583.882263,303.960510 589.036865,301.083038 593.904114,297.901459 
	C593.904114,297.901459 594.104126,298.092377 593.988281,298.779938 
	C591.726501,302.264832 589.618591,305.862946 587.161133,309.203888 
	C584.523560,312.789703 585.186951,315.942261 587.718445,319.114563 
	C592.695007,325.351044 599.083252,329.679779 606.300720,333.251251 
	C608.411011,330.456757 610.346497,327.893799 612.666138,324.822052 
	C615.707214,338.775482 614.233826,353.160522 624.528870,364.524872 
	C626.723877,363.155945 628.959900,361.801544 631.155823,360.384949 
	C640.215149,354.540649 649.087646,348.378357 658.387268,342.946808 
	C663.070679,340.211395 668.486877,339.590942 673.814270,343.680084 
	C671.976257,344.404785 670.400757,344.857178 668.992371,345.618530 
	C666.528198,346.950623 663.907532,348.175507 661.827698,349.990021 
	C659.221008,352.264221 658.875732,354.700897 662.812866,356.371399 
	C664.636230,357.145050 666.264709,358.377899 667.981567,359.402588 
	C667.874146,359.957886 667.766724,360.513214 667.659302,361.068512 
	C640.053528,358.290466 615.339417,371.802856 588.426270,373.808502 
	C591.503845,376.286224 594.610229,378.069244 597.750671,379.790070 
	C609.178101,386.051788 613.751343,395.676331 611.282837,408.480072 
	C610.236755,413.906189 609.073120,419.309631 608.233093,423.406067 
	C611.246460,425.303223 614.300781,426.104767 615.114197,427.913849 
	C622.249695,443.784546 625.574097,460.234711 623.513550,477.869080 
	C622.410034,487.313721 620.746277,497.060059 627.752502,506.019196 
	C637.628723,518.648132 641.582825,533.470825 640.205017,549.604553 
	C639.917725,552.968567 640.163269,556.378174 640.163269,559.746643 
	C645.990051,559.611206 648.342712,557.574524 648.177124,551.858276 
	C647.704590,535.548523 655.912170,523.826660 668.990723,514.995178 
	C668.990723,514.995178 668.954407,514.959351 669.151611,515.774414 
	C668.493469,519.052307 667.835327,522.330261 667.062500,526.179260 
	C670.961182,524.558594 674.132263,523.240356 677.435425,521.867188 
	C678.342468,523.835205 679.073120,525.420471 679.912903,527.242493 
	C685.296875,525.415039 690.391663,523.685791 695.570129,521.928101 
	C696.626648,524.722778 697.472046,526.958862 698.623474,530.004395 
	C706.242798,525.728760 713.246216,521.798767 721.308777,517.274414 
	C716.372559,512.344421 712.444153,507.847473 707.933411,504.040619 
	C699.675537,497.071350 690.882629,490.730804 682.708313,483.670288 
	C679.393799,480.807404 676.959045,480.483521 674.483276,483.868378 
	C669.306946,490.945374 664.275635,498.131622 659.319824,505.365540 
	C655.727600,510.609100 652.352722,516.001526 648.880859,521.327576 
	C648.396729,521.150513 647.912598,520.973389 647.428467,520.796326 
	C644.233948,511.423553 641.289612,501.956024 637.783508,492.701263 
	C633.067749,480.253021 633.696533,467.988403 638.103210,455.719421 
	C641.653931,445.833557 642.413452,435.638245 641.866333,425.260376 
	C641.385254,416.134460 638.863037,407.951752 631.413452,401.935181 
	C630.606567,401.283569 630.113464,400.243378 629.088196,398.862823 
	C632.353088,398.554779 634.979370,398.117889 637.609619,398.092194 
	C647.929810,397.991241 658.252319,397.918304 668.572021,398.022461 
	C687.865356,398.217163 706.264404,395.064056 722.944519,384.583984 
	C725.649841,382.884308 728.992920,382.199768 732.005127,381.009460 
	C732.005127,381.009460 731.964355,380.978180 731.783203,381.627563 
	C723.328918,392.902527 711.228699,398.503510 698.199341,401.802460 
	C687.953491,404.396667 677.297913,405.382446 666.817383,407.038055 
	C651.387329,409.475647 643.544189,421.386658 645.483704,438.611572 
	C656.052063,439.050232 666.825317,440.168823 677.547607,439.801178 
	C699.168579,439.059845 719.096436,432.559479 736.545349,419.501312 
	C742.787598,414.829773 746.460693,408.790192 746.104431,400.296204 
	C745.581116,387.820068 746.129883,375.302612 745.916687,362.807983 
	C745.835083,358.022461 745.476379,353.105408 744.281921,348.497650 
	C737.361938,321.802246 724.303101,298.228210 707.201660,276.746735 
	C701.168152,269.167908 694.893311,261.694824 690.993530,251.215683 
	C706.676392,260.093750 717.203430,271.785706 725.238464,286.580872 
	C735.223206,304.966187 745.671814,323.243866 757.646912,340.359924 
	C767.814636,354.892670 781.785767,363.441071 801.181091,357.286591 
	C806.942566,355.458405 808.757751,352.043915 809.902527,347.191040 
	C810.688049,343.860809 811.347107,340.500732 812.062683,337.153992 
	C812.459778,337.597321 812.856873,338.040649 813.253967,338.483978 
	C823.396362,333.878662 833.538696,329.273315 844.535461,324.280060 
	C847.588867,335.589264 850.652832,346.937653 853.716797,358.286041 
	C854.102417,358.345581 854.488098,358.405121 854.873718,358.464661 
	C857.529480,348.934509 860.185181,339.404358 862.840881,329.874207 
	C863.223206,329.777435 863.605530,329.680664 863.987854,329.583893 
	C867.504883,339.128143 871.021912,348.672394 874.684021,358.610504 
	C875.669495,355.171814 876.546326,352.112152 877.423157,349.052521 
	C880.496033,352.631714 882.237366,356.349030 884.156738,359.972046 
	C897.616699,385.379059 898.501343,414.930023 910.744263,440.746399 
	C911.222107,441.754089 911.091187,444.087341 910.578613,444.316772 
	C909.435364,444.828583 907.781250,444.696503 906.491699,444.307831 
	C892.653137,440.137146 883.141846,431.270813 878.070190,417.714142 
	C875.681396,411.328674 873.512939,404.857117 870.986755,398.527466 
	C866.584961,387.498505 859.709229,378.016815 852.321411,368.336304 
	C851.294495,369.499573 850.533936,370.011505 850.271545,370.710480 
	C845.844055,382.501404 841.393860,394.286163 837.256226,406.179230 
	C836.915955,407.157227 838.459473,409.453796 839.695251,410.209351 
	C847.789551,415.158020 856.048950,419.835999 864.237854,424.630646 
	C881.682068,434.844330 898.392517,446.004761 912.253052,460.982544 
	C922.320068,471.861084 932.505249,482.633820 942.830566,493.266541 
	C944.759399,495.252838 944.546631,496.727966 943.706848,498.912201 
	C940.306763,507.755280 936.867371,516.592163 933.839600,525.565308 
	C932.555237,529.371582 932.250122,533.508179 931.499939,537.494690 
	C931.995300,537.745667 932.490601,537.996704 932.985962,538.247681 
	C933.906433,537.387085 935.152039,536.688354 935.678406,535.631409 
	C936.709778,533.560608 937.232971,531.243713 938.157837,529.111694 
	C940.328430,524.107605 942.611694,519.152466 945.299072,513.177734 
	C946.411987,515.461365 946.925964,516.314575 947.260864,517.233032 
	C953.582825,534.570374 959.518127,552.060120 966.308350,569.211487 
	C971.423218,582.131042 971.325317,595.182190 969.532898,608.481628 
	C968.478882,616.302734 969.520935,623.473389 973.167725,630.679626 
	C976.188171,636.648193 978.093506,643.283020 979.762756,649.809387 
	C982.222351,659.425781 983.592651,669.330750 986.251221,678.883362 
	C988.636841,687.454956 989.476685,695.770447 986.753113,704.324585 
	C986.013428,706.647949 985.520264,709.049805 984.754822,712.036682 
	C992.281677,712.195312 998.214600,709.520325 1004.051514,706.292419 
	C1006.895081,704.719910 1007.830688,702.837891 1006.390381,699.817017 
	C1003.241150,693.211365 1000.281555,686.513062 997.029785,679.959167 
	C992.813477,671.461121 990.252563,662.712524 990.910828,653.056030 
	C991.282654,647.601074 991.148804,642.046570 990.581909,636.605774 
	C989.224854,623.580261 987.514648,610.590576 985.869995,597.596313 
	C985.099182,591.506470 984.857666,585.232971 983.156555,579.398254 
	C976.651001,557.085144 969.812378,534.947632 965.125671,512.067810 
	C959.758118,485.864319 957.776550,459.757996 960.270203,433.256989 
	C961.922424,415.697235 960.077026,398.655151 953.177429,382.417114 
	C947.845520,369.868408 941.917114,357.568237 936.077576,345.241089 
	C925.507874,322.928467 911.851624,303.111755 890.531372,289.546112 
	C889.574036,288.936981 889.262451,287.312988 888.650085,286.161713 
	C889.823486,285.989075 891.101257,285.422852 892.154663,285.702423 
	C909.875122,290.405518 927.272766,289.421814 944.708740,283.844147 
	C951.079773,281.806091 957.992920,281.462860 964.658691,280.346466 
	C964.729553,280.775238 964.800354,281.204010 964.871155,281.632782 
	C950.719116,284.209442 936.709961,287.230225 924.151855,295.031525 
	C931.876709,294.399506 939.544922,293.413177 946.962708,291.470490 
	C961.629517,287.629272 975.926819,287.705719 989.861084,294.085175 
	C1001.810181,299.555695 1013.713928,305.130005 1025.544922,310.850311 
	C1028.357300,312.210114 1031.008301,314.097443 1033.366333,316.161560 
	C1037.747437,319.996429 1041.292358,324.700226 1040.807983,330.790710 
	C1039.433105,348.084015 1034.360229,363.745117 1019.753052,374.807800 
	C1017.108093,376.811035 1014.523560,378.975647 1012.278870,381.405457 
	C1009.427551,384.491791 1007.338806,388.051575 1008.463379,393.433746 
	C1011.988892,392.214294 1015.314697,391.360138 1018.386536,389.951843 
	C1034.550781,382.541229 1048.852295,373.207520 1053.261597,354.302094 
	C1054.126709,350.592590 1054.902710,346.821411 1055.237427,343.036041 
	C1057.000977,323.091156 1051.719727,305.551392 1035.750122,292.706512 
	C1019.310791,279.483765 1000.960266,269.113678 981.104126,262.061829 
	C962.639099,255.503983 943.489136,258.550568 924.880981,261.892212 
	C915.388733,263.596863 906.315674,268.102936 897.318665,271.962006 
	C888.856384,275.591675 881.412292,275.640991 874.315063,269.055634 
	C870.671448,265.674774 866.690674,262.500000 862.418396,259.986481 
	C853.444641,254.706970 846.461243,247.678833 840.744385,239.009735 
	C838.474976,235.568436 835.090088,231.459991 831.481506,230.547104 
	C815.718689,226.559418 801.948120,218.525116 787.948669,210.876343 
	C765.849548,198.802155 742.088989,189.606461 724.550354,170.023605 
	C715.988159,160.463394 703.910828,154.209595 696.486328,143.252502 
	C680.663818,119.901688 660.528442,100.661263 637.418213,85.003860 
	C617.614807,71.586845 596.380005,60.274300 575.711792,48.144203 
	C552.098145,34.285469 527.851929,35.052227 503.479767,45.771469 
	C490.994629,51.262611 478.855316,57.534634 466.463684,63.245441 
	C457.371674,67.435593 449.469574,73.002335 443.453979,81.112915 
	C438.219513,88.170403 433.421478,95.402130 432.086426,104.796486 
	C434.959137,104.476089 437.269379,104.218430 440.930023,103.810158 
	C433.911163,111.452629 426.614471,115.418701 417.843262,117.113724 
	C389.232666,122.642700 375.231781,144.841324 382.816010,173.303848 
	C386.502655,170.438477 389.809174,167.417603 393.544891,165.083633 
	C397.831848,162.405304 402.499207,160.335846 407.000000,158.000000 
	C407.000000,158.000000 406.997559,157.997360 406.918030,158.676529 
	C404.158905,161.329956 401.512268,164.113632 398.619598,166.612427 
	C389.847382,174.190140 387.972198,183.518951 391.601440,194.147079 
	C393.695038,200.278091 396.305450,206.231293 398.463989,212.341995 
	C399.623566,215.624695 400.319855,219.071060 400.920349,221.307953 
	C385.506317,221.230392 370.759308,220.644775 356.058929,221.229889 
	C342.100250,221.785492 328.292114,224.061050 315.198914,229.416275 
	C307.329376,232.634995 304.977142,236.430649 306.100830,244.875412 
	C307.029419,251.854202 311.813293,255.814621 317.636414,258.930023 
	C322.490265,261.526855 325.490936,258.003235 328.772675,255.711060 
	C338.268555,249.078583 348.185547,243.301346 359.823578,241.557800 
	C371.070068,239.872910 382.388702,238.669983 393.824554,237.236679 
	C395.416809,241.950043 395.274445,241.693542 390.481079,244.353928 
	C383.990997,247.955978 376.525452,250.874695 371.688141,256.123199 
	C364.808502,263.587585 359.253265,272.536102 354.421051,281.542084 
	C350.426849,288.986267 352.439606,297.252441 354.813568,305.669403 
	C367.529663,302.548279 378.996124,298.217743 386.913635,287.984802 
	C393.412628,279.585236 398.888458,270.400055 405.240295,261.878021 
	C408.366211,257.684174 412.448761,254.203323 416.226593,250.266205 
	C413.204376,245.716385 410.411102,241.511200 408.266510,238.282623 
	C416.527893,233.405640 424.322021,228.804489 432.981415,223.692535 
	C432.981415,228.425751 432.981415,232.469025 432.981415,236.632050 
	C438.703674,236.133865 441.581848,233.685730 442.174866,228.582214 
	C442.538269,225.454987 443.418213,222.389191 443.811371,219.263748 
	C444.743500,211.853653 444.993805,210.979614 452.473236,210.092636 
	C461.858032,208.979721 471.339569,208.444763 480.791840,208.241730 
	C485.309662,208.144699 488.279358,207.161026 489.810242,202.571884 
	C491.067657,198.802582 492.947418,195.236023 494.617920,191.610260 
	C500.551270,178.732071 503.110016,165.410339 499.940369,151.339951 
	C498.986023,147.103531 497.920288,142.892197 496.905518,138.669373 
	C497.323334,138.396683 497.741119,138.123993 498.158905,137.851303 
	C500.730804,140.636932 503.449188,143.303864 505.831207,146.243362 
	C507.993042,148.911041 509.944427,149.221680 513.050171,147.529724 
	C518.422791,144.602783 524.111145,142.255524 529.894165,139.890823 
M181.085129,266.764069 
	C175.950851,264.907318 170.544739,263.577637 165.732742,261.095978 
	C150.696747,253.341583 134.949478,254.136444 117.691818,256.220917 
	C120.435707,257.065399 121.968796,257.545197 123.506622,258.009308 
	C144.997192,264.494934 166.158813,271.541199 184.284531,285.620575 
	C196.327301,294.974915 210.425400,295.958130 224.668533,292.394257 
	C240.251099,288.495239 255.582596,283.601929 271.069916,279.309265 
	C279.312347,277.024689 287.652832,275.093933 295.031219,273.234711 
	C295.031219,262.015686 295.031219,251.604218 295.031219,240.704605 
	C293.188507,241.207626 292.084839,241.413544 291.051941,241.805740 
	C281.601654,245.393814 272.159363,249.003021 262.722900,252.627319 
	C236.713928,262.616638 210.604416,272.025665 181.085129,266.764069 
M577.712341,178.870300 
	C577.057556,174.683853 576.402771,170.497406 575.748047,166.310959 
	C572.415161,170.099503 570.415344,174.385193 567.907410,178.349503 
	C564.117615,184.340271 560.801025,190.959808 555.814148,195.797714 
	C544.150696,207.112671 529.909607,212.683182 513.301758,212.194214 
	C498.159485,211.748413 482.903961,211.030136 467.861603,212.326340 
	C447.826782,214.052750 445.972046,214.314987 446.050964,232.985138 
	C446.052307,233.304962 446.217987,233.624084 446.535919,234.765320 
	C449.728546,234.765320 453.256866,235.287094 456.575867,234.674606 
	C470.633331,232.080505 484.715057,232.210327 498.876251,233.377686 
	C523.395813,235.398956 544.841980,227.840424 563.197998,211.731216 
	C572.708862,203.384460 578.532227,192.982071 577.712341,178.870300 
M451.309479,293.629242 
	C451.940430,291.969696 452.571381,290.310181 453.311859,288.362427 
	C447.970978,286.274811 443.123535,287.180481 438.986572,289.502472 
	C427.688385,295.843933 416.386749,302.268646 405.658936,309.508575 
	C396.991211,315.358124 391.527039,323.960663 389.726868,334.502899 
	C389.506592,335.792633 389.523041,337.735901 390.295013,338.486786 
	C397.792603,345.779633 408.696930,344.195740 412.938110,334.491913 
	C419.312042,319.908386 428.950134,308.177094 441.119476,298.244080 
	C443.695007,296.141876 445.699341,292.535004 449.844727,295.570740 
	C449.906677,295.616119 450.638184,294.747253 451.309479,293.629242 
M328.511810,319.632080 
	C330.116272,327.041779 333.911591,332.572571 342.878693,335.843567 
	C337.713745,319.004883 331.723267,303.588806 333.262695,286.746185 
	C327.405914,296.988373 327.253723,307.813965 328.511810,319.632080 
M352.593628,414.134338 
	C352.054993,413.927582 351.269714,413.380157 351.014496,413.564911 
	C346.753113,416.650146 343.858948,425.142181 345.597839,429.181854 
	C348.437958,435.779846 356.822418,441.266418 363.146210,440.290375 
	C361.998779,430.850952 357.651123,422.730072 352.593628,414.134338 
M645.966675,489.590027 
	C645.405334,489.747070 644.843933,489.904114 644.282593,490.061157 
	C645.860168,495.691132 647.437744,501.321106 649.420898,508.398621 
	C651.995728,503.315460 653.895508,499.564911 655.951477,495.506042 
	C652.534790,493.475098 649.574463,491.715363 645.966675,489.590027 
M504.741272,315.216827 
	C502.217316,319.084534 499.693390,322.952240 497.169434,326.819977 
	C497.719757,327.205597 498.270081,327.591248 498.820374,327.976898 
	C505.390137,323.973724 510.901672,318.977051 514.106445,311.814789 
	C513.753418,311.304565 513.400330,310.794342 513.047302,310.284119 
	C510.472687,311.783203 507.898041,313.282318 504.741272,315.216827 
M385.484772,472.974609 
	C379.099182,469.537170 374.260468,470.098480 369.782990,475.895294 
	C375.450043,475.895294 380.193054,475.955048 384.928284,475.791046 
	C385.342957,475.776672 385.706787,474.294159 385.484772,472.974609 
M856.809631,675.796021 
	C855.499023,672.398315 853.549011,670.135193 848.346680,671.893005 
	C851.643066,675.947327 854.609131,679.595337 857.575134,683.243347 
	C858.008545,682.975220 858.441895,682.707153 858.875244,682.439026 
	C858.255310,680.467773 857.635315,678.496521 856.809631,675.796021 
M428.018127,326.186310 
	C434.103790,328.371216 431.843384,322.176086 435.010254,320.089142 
	C432.124084,319.553986 430.262543,319.208862 427.790833,318.750580 
	C427.605743,321.392090 427.450867,323.602509 428.018127,326.186310 
z"/>
<path fill="#FAFAFA" opacity="1.000000" stroke="none" 
	d="
M997.893799,744.864868 
	C1014.336487,733.874817 1020.712219,712.079773 1012.301025,693.555664 
	C1010.586670,689.780151 1008.661133,686.092224 1006.673767,682.450806 
	C1002.728821,675.222107 1000.262024,667.687195 999.544861,659.349304 
	C997.893066,640.145325 995.365540,621.015747 993.773560,601.807922 
	C992.614258,587.820007 990.542847,574.137878 985.731812,560.889465 
	C983.074768,553.572632 980.192810,546.201660 978.760925,538.601013 
	C974.366577,515.275818 969.768127,491.929413 966.972534,468.386597 
	C965.478394,455.803223 967.146484,442.771118 968.066040,429.990387 
	C969.701965,407.252319 964.460571,386.077667 954.412903,365.938202 
	C946.933228,350.946014 939.096130,336.131958 931.397034,321.249573 
	C929.959595,318.470886 928.421509,315.744263 927.043762,313.203796 
	C954.429321,301.952026 981.419495,301.468262 1007.958618,315.002380 
	C1012.070435,317.099274 1016.053284,319.680603 1019.579773,322.650543 
	C1030.580688,331.915497 1032.865234,344.613098 1025.787231,357.137482 
	C1020.546448,366.410767 1013.281860,373.905731 1004.333557,379.757172 
	C999.047363,383.213867 993.615051,386.508179 988.663269,390.402985 
	C976.969971,399.600433 975.852905,416.696259 986.161377,427.431824 
	C993.078491,434.635620 1002.114441,436.965424 1012.451599,438.131134 
	C1011.826843,431.674652 1011.692322,425.678680 1010.582825,419.868896 
	C1008.794800,410.506104 1012.073120,403.511688 1019.581299,398.329651 
	C1026.142334,393.801300 1032.880859,389.515320 1039.680420,385.350250 
	C1053.745361,376.734833 1060.230835,363.698486 1062.126465,347.407410 
	C1062.825317,348.683136 1063.917603,350.370026 1063.924438,352.061279 
	C1064.032227,378.536072 1064.000000,405.011444 1064.000000,431.486664 
	C1064.000000,533.890869 1063.964966,636.295105 1064.107056,738.699097 
	C1064.113892,743.626160 1063.079346,745.232056 1057.843018,745.135620 
	C1038.034912,744.770630 1018.217041,744.944336 997.893799,744.864868 
z"/>
<path fill="#AE1C3A" opacity="1.000000" stroke="none" 
	d="
M568.043030,273.046753 
	C564.286621,274.626038 560.208801,275.703247 556.827026,277.867859 
	C538.008118,289.913788 518.458740,289.724060 498.682159,281.209991 
	C490.220551,277.567200 482.380951,278.294250 473.594269,281.183075 
	C475.432281,285.863464 477.552704,290.027832 478.690216,294.445251 
	C480.459229,301.315155 482.355408,308.310883 482.764313,315.336670 
	C483.440796,326.960571 482.628662,338.664398 483.082336,350.309662 
	C483.621613,364.153351 477.445496,374.373077 466.842102,382.240875 
	C461.997253,385.835785 456.487427,388.534515 450.308167,392.218689 
	C450.308167,386.851074 450.308167,382.946228 450.308167,379.041412 
	C449.767395,378.982025 449.226654,378.922638 448.685883,378.863251 
	C448.307251,382.209564 447.274567,385.639618 447.689819,388.884308 
	C448.487946,395.120789 450.242249,401.228851 451.312042,407.439758 
	C451.693451,409.654022 451.757385,412.178345 451.082245,414.276733 
	C447.405365,425.704620 439.936981,434.400970 430.493622,442.369812 
	C428.465240,436.181671 428.833679,430.965881 431.154144,425.474091 
	C433.249176,420.515808 435.380280,415.172485 435.616882,409.914398 
	C436.077545,399.677795 439.075256,390.355743 442.976868,381.113098 
	C444.373444,377.804626 445.285706,374.291687 445.356781,370.377869 
	C444.733398,371.347565 444.081299,372.300171 443.491241,373.289764 
	C439.672974,379.693481 436.115234,386.270325 431.978912,392.460907 
	C428.824066,397.182556 430.238525,402.076172 430.305969,406.964539 
	C430.328766,408.616028 430.907532,410.283295 430.783752,411.909271 
	C430.263306,418.747925 429.731689,425.688995 420.395172,425.588226 
	C422.879181,434.786774 425.682526,443.305206 427.326721,452.041779 
	C428.149536,456.413971 427.658844,461.425476 426.363434,465.726562 
	C423.174377,476.315094 414.754517,480.867981 402.281982,479.510437 
	C398.732635,479.124115 395.230347,478.305542 391.582642,477.663391 
	C391.923004,476.755585 391.997101,476.297241 392.112885,476.286438 
	C399.793060,475.570465 404.920441,471.632507 407.911011,464.481934 
	C411.288483,456.406372 415.049103,448.491638 418.542938,440.463409 
	C418.979553,439.460175 418.805389,438.191132 418.213898,436.733765 
	C416.419525,439.945068 415.340424,444.176422 412.627930,446.078339 
	C409.960236,447.948914 405.644806,447.802307 402.034760,447.902191 
	C398.454285,448.001251 394.329559,449.742493 390.929840,445.184814 
	C396.216736,443.326996 401.085266,441.281158 406.139404,439.929413 
	C411.791290,438.417786 410.015320,434.852844 409.099182,431.364105 
	C408.145966,427.734161 406.716736,424.313446 402.038788,425.850891 
	C396.539368,427.658325 391.204102,429.965302 385.376770,432.007019 
	C384.955902,431.958374 384.860809,431.864197 384.860809,431.864197 
	C386.138397,422.780365 393.916382,420.820923 401.016846,417.569366 
	C398.304108,412.454102 395.696747,407.537476 392.874146,402.215027 
	C389.463043,407.651703 386.676392,412.903748 383.105682,417.553741 
	C379.613770,422.101166 375.322388,426.034698 371.005005,430.639709 
	C365.759460,423.452484 362.836517,416.455963 362.218781,408.750854 
	C361.434967,398.973969 361.002716,389.153320 360.883972,379.345886 
	C360.831238,374.993683 361.918091,370.627716 362.487671,366.267975 
	C363.028717,366.238983 363.569763,366.209991 364.110809,366.181000 
	C366.284882,372.614014 368.458984,379.047028 370.633057,385.480072 
	C371.292938,385.359955 371.952820,385.239838 372.612701,385.119720 
	C371.983337,377.998810 371.364960,370.876923 370.718079,363.757629 
	C370.523071,361.611481 370.074799,359.475342 370.040100,357.329834 
	C369.859711,346.177917 377.827393,340.970551 388.034119,345.619568 
	C390.874908,346.913452 393.512512,348.653412 396.398346,350.275909 
	C392.581635,359.716034 385.268127,364.023926 375.767120,366.133240 
	C379.137268,371.205322 382.152771,375.743683 385.371857,380.588440 
	C390.591888,376.223663 396.724548,372.965698 392.118652,364.005951 
	C399.132599,363.012024 405.265411,362.142975 411.876678,361.206116 
	C410.338959,358.220093 408.868439,355.364594 407.001007,351.738342 
	C413.711517,352.413483 419.629578,352.914124 425.522034,353.626556 
	C432.315125,354.447906 436.874084,352.027008 439.741455,346.038208 
	C436.437500,346.753265 432.699127,348.633148 429.508789,347.950775 
	C426.337830,347.272522 423.717804,344.018280 420.108490,341.338531 
	C423.071899,339.916138 424.962799,338.949524 426.900513,338.088135 
	C438.189240,333.069519 440.938934,329.532013 439.908661,317.489929 
	C439.185181,309.033997 441.896454,302.948334 449.053070,298.048798 
	C450.980469,300.179871 453.032562,302.448792 455.937134,305.660217 
	C458.793396,299.699829 461.405487,294.444031 463.840729,289.107513 
	C465.910400,284.572021 467.900787,279.991516 469.693451,275.341156 
	C471.175140,271.497375 474.115540,269.749939 477.829285,270.069122 
	C483.226044,270.532928 488.785797,271.004883 493.881714,272.675842 
	C505.150208,276.370758 516.422607,278.390808 528.200012,276.002686 
	C529.775208,275.683289 531.310852,275.169159 532.727600,274.782623 
	C530.574707,266.657349 528.590271,258.953094 526.478271,251.284012 
	C525.354919,247.204880 525.871521,244.625412 530.566101,242.944748 
	C538.691223,240.035980 546.577454,236.422028 554.448608,232.849686 
	C571.556335,225.085220 578.893372,210.773117 581.024231,192.928391 
	C582.301392,182.232986 581.130066,172.061707 575.151184,161.544846 
	C566.240662,174.034637 557.590393,186.159668 548.563293,198.812958 
	C545.823120,195.350296 543.903015,192.923874 541.485718,189.869156 
	C540.666138,192.324997 540.212219,194.175522 539.440063,195.882095 
	C538.329102,198.337387 537.549866,202.007782 535.633179,202.825684 
	C530.689026,204.935425 525.205872,205.796280 519.912292,207.047333 
	C519.463318,207.153442 518.588074,206.584564 518.305786,206.099442 
	C513.551880,197.930267 507.987579,190.128601 507.023041,180.275253 
	C505.540771,165.132523 513.367249,154.656815 524.156494,145.608414 
	C526.068481,144.004898 527.933960,142.345825 530.182800,140.313538 
	C530.507446,139.677979 530.470154,139.441254 530.432861,139.204529 
	C530.177612,139.358047 529.922302,139.511566 529.667053,139.665100 
	C524.111145,142.255524 518.422791,144.602783 513.050171,147.529724 
	C509.944427,149.221680 507.993042,148.911041 505.831207,146.243362 
	C503.449188,143.303864 500.730804,140.636932 498.158905,137.851303 
	C497.741119,138.123993 497.323334,138.396683 496.905518,138.669373 
	C497.920288,142.892197 498.986023,147.103531 499.940369,151.339951 
	C503.110016,165.410339 500.551270,178.732071 494.617920,191.610260 
	C492.947418,195.236023 491.067657,198.802582 489.810242,202.571884 
	C488.279358,207.161026 485.309662,208.144699 480.791840,208.241730 
	C471.339569,208.444763 461.858032,208.979721 452.473236,210.092636 
	C444.993805,210.979614 444.743500,211.853653 443.811371,219.263748 
	C443.418213,222.389191 442.538269,225.454987 442.174866,228.582214 
	C441.581848,233.685730 438.703674,236.133865 432.981415,236.632050 
	C432.981415,232.469025 432.981415,228.425751 432.981415,223.692535 
	C424.322021,228.804489 416.527893,233.405640 408.266510,238.282623 
	C410.411102,241.511200 413.204376,245.716385 416.226593,250.266205 
	C412.448761,254.203323 408.366211,257.684174 405.240295,261.878021 
	C398.888458,270.400055 393.412628,279.585236 386.913635,287.984802 
	C378.996124,298.217743 367.529663,302.548279 354.813568,305.669403 
	C352.439606,297.252441 350.426849,288.986267 354.421051,281.542084 
	C359.253265,272.536102 364.808502,263.587585 371.688141,256.123199 
	C376.525452,250.874695 383.990997,247.955978 390.481079,244.353928 
	C395.274445,241.693542 395.416809,241.950043 393.824554,237.236679 
	C382.388702,238.669983 371.070068,239.872910 359.823578,241.557800 
	C348.185547,243.301346 338.268555,249.078583 328.772675,255.711060 
	C325.490936,258.003235 322.490265,261.526855 317.636414,258.930023 
	C311.813293,255.814621 307.029419,251.854202 306.100830,244.875412 
	C304.977142,236.430649 307.329376,232.634995 315.198914,229.416275 
	C328.292114,224.061050 342.100250,221.785492 356.058929,221.229889 
	C370.759308,220.644775 385.506317,221.230392 400.920349,221.307953 
	C400.319855,219.071060 399.623566,215.624695 398.463989,212.341995 
	C396.305450,206.231293 393.695038,200.278091 391.601440,194.147079 
	C387.972198,183.518951 389.847382,174.190140 398.619598,166.612427 
	C401.512268,164.113632 404.158905,161.329956 407.186188,158.363220 
	C407.714355,157.919388 407.974365,157.788834 408.234375,157.658279 
	C408.144501,157.543747 407.987488,157.322174 407.974609,157.330261 
	C407.641022,157.539581 407.322479,157.772827 407.001343,158.001892 
	C402.499207,160.335846 397.831848,162.405304 393.544891,165.083633 
	C389.809174,167.417603 386.502655,170.438477 382.816010,173.303848 
	C375.231781,144.841324 389.232666,122.642700 417.843262,117.113724 
	C426.614471,115.418701 433.911163,111.452629 440.930023,103.810158 
	C437.269379,104.218430 434.959137,104.476089 432.086426,104.796486 
	C433.421478,95.402130 438.219513,88.170403 443.453979,81.112915 
	C449.469574,73.002335 457.371674,67.435593 466.463684,63.245441 
	C478.855316,57.534634 490.994629,51.262611 503.479767,45.771469 
	C527.851929,35.052227 552.098145,34.285469 575.711792,48.144203 
	C596.380005,60.274300 617.614807,71.586845 637.418213,85.003860 
	C660.528442,100.661263 680.663818,119.901688 696.486328,143.252502 
	C703.910828,154.209595 715.988159,160.463394 724.550354,170.023605 
	C742.088989,189.606461 765.849548,198.802155 787.948669,210.876343 
	C801.948120,218.525116 815.718689,226.559418 831.481506,230.547104 
	C835.090088,231.459991 838.474976,235.568436 840.744385,239.009735 
	C846.461243,247.678833 853.444641,254.706970 862.418396,259.986481 
	C866.690674,262.500000 870.671448,265.674774 874.315063,269.055634 
	C881.412292,275.640991 888.856384,275.591675 897.318665,271.962006 
	C906.315674,268.102936 915.388733,263.596863 924.880981,261.892212 
	C943.489136,258.550568 962.639099,255.503983 981.104126,262.061829 
	C1000.960266,269.113678 1019.310791,279.483765 1035.750122,292.706512 
	C1051.719727,305.551392 1057.000977,323.091156 1055.237427,343.036041 
	C1054.902710,346.821411 1054.126709,350.592590 1053.261597,354.302094 
	C1048.852295,373.207520 1034.550781,382.541229 1018.386536,389.951843 
	C1015.314697,391.360138 1011.988892,392.214294 1008.463379,393.433746 
	C1007.338806,388.051575 1009.427551,384.491791 1012.278870,381.405457 
	C1014.523560,378.975647 1017.108093,376.811035 1019.753052,374.807800 
	C1034.360229,363.745117 1039.433105,348.084015 1040.807983,330.790710 
	C1041.292358,324.700226 1037.747437,319.996429 1033.366333,316.161560 
	C1031.008301,314.097443 1028.357300,312.210114 1025.544922,310.850311 
	C1013.713928,305.130005 1001.810181,299.555695 989.861084,294.085175 
	C975.926819,287.705719 961.629517,287.629272 946.962708,291.470490 
	C939.544922,293.413177 931.876709,294.399506 924.151855,295.031525 
	C936.709961,287.230225 950.719116,284.209442 964.871155,281.632782 
	C964.800354,281.204010 964.729553,280.775238 964.658691,280.346466 
	C957.992920,281.462860 951.079773,281.806091 944.708740,283.844147 
	C927.272766,289.421814 909.875122,290.405518 892.154663,285.702423 
	C891.101257,285.422852 889.823486,285.989075 888.650146,286.161682 
	C889.262451,287.312988 889.574036,288.936981 890.531372,289.546112 
	C911.851624,303.111755 925.507874,322.928467 936.077576,345.241089 
	C941.917114,357.568237 947.845520,369.868408 953.177429,382.417114 
	C960.077026,398.655151 961.922424,415.697235 960.270203,433.256989 
	C957.776550,459.757996 959.758118,485.864319 965.125671,512.067810 
	C969.812378,534.947632 976.651001,557.085144 983.156555,579.398254 
	C984.857666,585.232971 985.099182,591.506470 985.869995,597.596313 
	C987.514648,610.590576 989.224854,623.580261 990.581909,636.605774 
	C991.148804,642.046570 991.282654,647.601074 990.910828,653.056030 
	C990.252563,662.712524 992.813477,671.461121 997.029785,679.959167 
	C1000.281555,686.513062 1003.241150,693.211365 1006.390381,699.817017 
	C1007.830688,702.837891 1006.895081,704.719910 1004.051514,706.292419 
	C998.214600,709.520325 992.281677,712.195312 984.754822,712.036682 
	C985.520264,709.049805 986.013428,706.647949 986.753113,704.324585 
	C989.476685,695.770447 988.636841,687.454956 986.251221,678.883362 
	C983.592651,669.330750 982.222351,659.425781 979.762756,649.809387 
	C978.093506,643.283020 976.188171,636.648193 973.167725,630.679626 
	C969.520935,623.473389 968.478882,616.302734 969.532898,608.481628 
	C971.325317,595.182190 971.423218,582.131042 966.308350,569.211487 
	C959.518127,552.060120 953.582825,534.570374 947.260864,517.233032 
	C946.925964,516.314575 946.411987,515.461365 945.299072,513.177734 
	C942.611694,519.152466 940.328430,524.107605 938.157837,529.111694 
	C937.232971,531.243713 936.709778,533.560608 935.678406,535.631409 
	C935.152039,536.688354 933.906433,537.387085 932.985962,538.247681 
	C932.490601,537.996704 931.995300,537.745667 931.499939,537.494690 
	C932.250122,533.508179 932.555237,529.371582 933.839600,525.565308 
	C936.867371,516.592163 940.306763,507.755280 943.706848,498.912201 
	C944.546631,496.727966 944.759399,495.252838 942.830566,493.266541 
	C932.505249,482.633820 922.320068,471.861084 912.253052,460.982544 
	C898.392517,446.004761 881.682068,434.844330 864.237854,424.630646 
	C856.048950,419.835999 847.789551,415.158020 839.695251,410.209351 
	C838.459473,409.453796 836.915955,407.157227 837.256226,406.179230 
	C841.393860,394.286163 845.844055,382.501404 850.271545,370.710480 
	C850.533936,370.011505 851.294495,369.499573 852.321411,368.336304 
	C859.709229,378.016815 866.584961,387.498505 870.986755,398.527466 
	C873.512939,404.857117 875.681396,411.328674 878.070190,417.714142 
	C883.141846,431.270813 892.653137,440.137146 906.491699,444.307831 
	C907.781250,444.696503 909.435364,444.828583 910.578613,444.316772 
	C911.091187,444.087341 911.222107,441.754089 910.744263,440.746399 
	C898.501343,414.930023 897.616699,385.379059 884.156738,359.972046 
	C882.237366,356.349030 880.496033,352.631714 877.423157,349.052521 
	C876.546326,352.112152 875.669495,355.171814 874.684021,358.610504 
	C871.021912,348.672394 867.504883,339.128143 863.987854,329.583893 
	C863.605530,329.680664 863.223206,329.777435 862.840881,329.874207 
	C860.185181,339.404358 857.529480,348.934509 854.873718,358.464661 
	C854.488098,358.405121 854.102417,358.345581 853.716797,358.286041 
	C850.652832,346.937653 847.588867,335.589264 844.535461,324.280060 
	C833.538696,329.273315 823.396362,333.878662 813.253967,338.483978 
	C812.856873,338.040649 812.459778,337.597321 812.062683,337.153992 
	C811.347107,340.500732 810.688049,343.860809 809.902527,347.191040 
	C808.757751,352.043915 806.942566,355.458405 801.181091,357.286591 
	C781.785767,363.441071 767.814636,354.892670 757.646912,340.359924 
	C745.671814,323.243866 735.223206,304.966187 725.238464,286.580872 
	C717.203430,271.785706 706.676392,260.093750 690.993530,251.215683 
	C694.893311,261.694824 701.168152,269.167908 707.201660,276.746735 
	C724.303101,298.228210 737.361938,321.802246 744.281921,348.497650 
	C745.476379,353.105408 745.835083,358.022461 745.916687,362.807983 
	C746.129883,375.302612 745.581116,387.820068 746.104431,400.296204 
	C746.460693,408.790192 742.787598,414.829773 736.545349,419.501312 
	C719.096436,432.559479 699.168579,439.059845 677.547607,439.801178 
	C666.825317,440.168823 656.052063,439.050232 645.483704,438.611572 
	C643.544189,421.386658 651.387329,409.475647 666.817383,407.038055 
	C677.297913,405.382446 687.953491,404.396667 698.199341,401.802460 
	C711.228699,398.503510 723.328918,392.902527 732.027283,381.243347 
	C732.194641,380.921417 732.117920,380.983704 732.041199,381.046021 
	C728.992920,382.199768 725.649841,382.884308 722.944519,384.583984 
	C706.264404,395.064056 687.865356,398.217163 668.572021,398.022461 
	C658.252319,397.918304 647.929810,397.991241 637.609619,398.092194 
	C634.979370,398.117889 632.353088,398.554779 629.088196,398.862823 
	C630.113464,400.243378 630.606567,401.283569 631.413452,401.935181 
	C638.863037,407.951752 641.385254,416.134460 641.866333,425.260376 
	C642.413452,435.638245 641.653931,445.833557 638.103210,455.719421 
	C633.696533,467.988403 633.067749,480.253021 637.783508,492.701263 
	C641.289612,501.956024 644.233948,511.423553 647.428467,520.796326 
	C647.912598,520.973389 648.396729,521.150513 648.880859,521.327576 
	C652.352722,516.001526 655.727600,510.609100 659.319824,505.365540 
	C664.275635,498.131622 669.306946,490.945374 674.483276,483.868378 
	C676.959045,480.483521 679.393799,480.807404 682.708313,483.670288 
	C690.882629,490.730804 699.675537,497.071350 707.933411,504.040619 
	C712.444153,507.847473 716.372559,512.344421 721.308777,517.274414 
	C713.246216,521.798767 706.242798,525.728760 698.623474,530.004395 
	C697.472046,526.958862 696.626648,524.722778 695.570129,521.928101 
	C690.391663,523.685791 685.296875,525.415039 679.912903,527.242493 
	C679.073120,525.420471 678.342468,523.835205 677.435425,521.867188 
	C674.132263,523.240356 670.961182,524.558594 667.062500,526.179260 
	C667.835327,522.330261 668.493469,519.052307 669.218750,515.373901 
	C669.197815,514.994141 669.109680,515.014954 669.021545,515.035828 
	C655.912170,523.826660 647.704590,535.548523 648.177124,551.858276 
	C648.342712,557.574524 645.990051,559.611206 640.163269,559.746643 
	C640.163269,556.378174 639.917725,552.968567 640.205017,549.604553 
	C641.582825,533.470825 637.628723,518.648132 627.752502,506.019196 
	C620.746277,497.060059 622.410034,487.313721 623.513550,477.869080 
	C625.574097,460.234711 622.249695,443.784546 615.114197,427.913849 
	C614.300781,426.104767 611.246460,425.303223 608.233093,423.406067 
	C609.073120,419.309631 610.236755,413.906189 611.282837,408.480072 
	C613.751343,395.676331 609.178101,386.051788 597.750671,379.790070 
	C594.610229,378.069244 591.503845,376.286224 588.426270,373.808502 
	C615.339417,371.802856 640.053528,358.290466 667.659302,361.068512 
	C667.766724,360.513214 667.874146,359.957886 667.981567,359.402588 
	C666.264709,358.377899 664.636230,357.145050 662.812866,356.371399 
	C658.875732,354.700897 659.221008,352.264221 661.827698,349.990021 
	C663.907532,348.175507 666.528198,346.950623 668.992371,345.618530 
	C670.400757,344.857178 671.976257,344.404785 673.814270,343.680084 
	C668.486877,339.590942 663.070679,340.211395 658.387268,342.946808 
	C649.087646,348.378357 640.215149,354.540649 631.155823,360.384949 
	C628.959900,361.801544 626.723877,363.155945 624.528870,364.524872 
	C614.233826,353.160522 615.707214,338.775482 612.666138,324.822052 
	C610.346497,327.893799 608.411011,330.456757 606.300720,333.251251 
	C599.083252,329.679779 592.695007,325.351044 587.718445,319.114563 
	C585.186951,315.942261 584.523560,312.789703 587.161133,309.203888 
	C589.618591,305.862946 591.726501,302.264832 594.236572,298.338989 
	C594.444275,297.672272 594.403748,297.446533 594.363159,297.220825 
	C594.144226,297.383270 593.925354,297.545715 593.706421,297.708191 
	C589.036865,301.083038 583.882263,303.960510 579.802063,307.939667 
	C572.081482,315.468964 564.727173,323.414459 557.676453,331.580536 
	C546.995972,343.950562 528.204712,352.318542 512.758667,350.492096 
	C514.871765,348.087769 516.622192,346.004089 518.469543,344.010162 
	C526.253357,335.608948 534.273926,327.414337 541.762634,318.758942 
	C544.632629,315.441742 546.965881,311.322510 548.411987,307.174194 
	C552.754517,294.717041 560.598145,284.392670 568.012451,273.245026 
	C568.174500,272.913849 568.108765,272.980316 568.043030,273.046753 
M436.726105,154.997452 
	C444.803802,150.082611 452.982605,145.322021 460.886261,140.141663 
	C462.800018,138.887344 463.805847,136.247772 465.229156,134.245193 
	C464.839417,133.841660 464.449677,133.438110 464.059967,133.034576 
	C460.353333,134.732834 456.396179,136.038742 452.992920,138.212051 
	C446.178558,142.563690 439.268677,146.989960 435.642914,155.011139 
	C435.760925,155.006149 435.878906,155.001160 436.726105,154.997452 
M700.465332,236.101944 
	C698.238586,232.620865 696.642761,228.438065 693.680603,225.774918 
	C676.967529,210.748627 662.072937,194.470932 653.006775,173.467606 
	C651.414795,169.779495 647.934937,166.906265 645.326843,163.656723 
	C644.644226,164.031174 643.961609,164.405624 643.278931,164.780060 
	C645.607544,171.404419 647.298462,178.344177 650.388672,184.591827 
	C658.487976,200.966248 667.179016,217.048599 675.706970,233.208954 
	C676.268799,234.273666 677.313416,235.577606 678.353149,235.817291 
	C686.041443,237.589661 693.785522,239.120102 702.093262,240.847458 
	C701.563904,239.160309 701.188965,237.965240 700.465332,236.101944 
M437.765106,175.300964 
	C438.450623,171.778076 439.136169,168.255188 439.944580,164.100876 
	C438.844147,164.827850 438.235321,165.093506 437.805542,165.533890 
	C426.106140,177.522141 421.379669,193.007065 416.595184,208.409683 
	C416.358643,209.171204 418.764130,211.824768 419.538971,211.664261 
	C427.742004,209.965012 435.863770,207.873199 444.519867,205.764877 
	C443.508636,203.887985 443.101898,202.570343 442.258209,201.655823 
	C435.301178,194.115143 434.683380,185.445526 437.765106,175.300964 
M847.189819,274.514435 
	C849.117798,285.800018 851.129944,297.072083 852.941589,308.376312 
	C853.990662,314.922150 856.829712,317.820099 865.217346,319.126160 
	C866.112793,313.358612 868.571655,307.293518 867.600952,301.838776 
	C865.222961,288.476746 856.518127,278.499084 846.352295,268.281036 
	C846.709106,270.927429 846.898193,272.330353 847.189819,274.514435 
M478.422577,316.905487 
	C477.350739,313.035919 476.278870,309.166351 475.207031,305.296783 
	C473.663513,306.596924 473.165436,307.673981 473.131104,308.765564 
	C472.866394,317.185547 470.044525,324.643829 465.175140,331.477753 
	C462.863983,334.721313 460.819275,338.191559 458.997650,341.735809 
	C457.434479,344.777191 456.360657,348.070099 455.070435,351.251770 
	C455.653412,351.597961 456.236359,351.944153 456.819305,352.290344 
	C462.525635,345.219421 468.654327,338.436890 473.760986,330.956573 
	C476.334167,327.187286 477.053375,322.152313 478.422577,316.905487 
z"/>
<path fill="#F8F8F8" opacity="1.000000" stroke="none" 
	d="
M181.505585,266.843292 
	C210.604416,272.025665 236.713928,262.616638 262.722900,252.627319 
	C272.159363,249.003021 281.601654,245.393814 291.051941,241.805740 
	C292.084839,241.413544 293.188507,241.207626 295.031219,240.704605 
	C295.031219,251.604218 295.031219,262.015686 295.031219,273.234711 
	C287.652832,275.093933 279.312347,277.024689 271.069916,279.309265 
	C255.582596,283.601929 240.251099,288.495239 224.668533,292.394257 
	C210.425400,295.958130 196.327301,294.974915 184.284531,285.620575 
	C166.158813,271.541199 144.997192,264.494934 123.506622,258.009308 
	C121.968796,257.545197 120.435707,257.065399 117.691818,256.220917 
	C134.949478,254.136444 150.696747,253.341583 165.732742,261.095978 
	C170.544739,263.577637 175.950851,264.907318 181.505585,266.843292 
z"/>
<path fill="#F7F7F7" opacity="1.000000" stroke="none" 
	d="
M577.750610,179.320587 
	C578.532227,192.982071 572.708862,203.384460 563.197998,211.731216 
	C544.841980,227.840424 523.395813,235.398956 498.876251,233.377686 
	C484.715057,232.210327 470.633331,232.080505 456.575867,234.674606 
	C453.256866,235.287094 449.728546,234.765320 446.535919,234.765320 
	C446.217987,233.624084 446.052307,233.304962 446.050964,232.985138 
	C445.972046,214.314987 447.826782,214.052750 467.861603,212.326340 
	C482.903961,211.030136 498.159485,211.748413 513.301758,212.194214 
	C529.909607,212.683182 544.150696,207.112671 555.814148,195.797714 
	C560.801025,190.959808 564.117615,184.340271 567.907410,178.349503 
	C570.415344,174.385193 572.415161,170.099503 575.748047,166.310959 
	C576.402771,170.497406 577.057556,174.683853 577.750610,179.320587 
z"/>
<path fill="#AC1C39" opacity="1.000000" stroke="none" 
	d="
M451.183350,293.967163 
	C450.638184,294.747253 449.906677,295.616119 449.844727,295.570740 
	C445.699341,292.535004 443.695007,296.141876 441.119476,298.244080 
	C428.950134,308.177094 419.312042,319.908386 412.938110,334.491913 
	C408.696930,344.195740 397.792603,345.779633 390.295013,338.486786 
	C389.523041,337.735901 389.506592,335.792633 389.726868,334.502899 
	C391.527039,323.960663 396.991211,315.358124 405.658936,309.508575 
	C416.386749,302.268646 427.688385,295.843933 438.986572,289.502472 
	C443.123535,287.180481 447.970978,286.274811 453.311859,288.362427 
	C452.571381,290.310181 451.940430,291.969696 451.183350,293.967163 
z"/>
<path fill="#A81B38" opacity="1.000000" stroke="none" 
	d="
M328.383057,319.216614 
	C327.253723,307.813965 327.405914,296.988373 333.262695,286.746185 
	C331.723267,303.588806 337.713745,319.004883 342.878693,335.843567 
	C333.911591,332.572571 330.116272,327.041779 328.383057,319.216614 
z"/>
<path fill="#AB1C39" opacity="1.000000" stroke="none" 
	d="
M352.777313,414.436707 
	C357.651123,422.730072 361.998779,430.850952 363.146210,440.290375 
	C356.822418,441.266418 348.437958,435.779846 345.597839,429.181854 
	C343.858948,425.142181 346.753113,416.650146 351.014496,413.564911 
	C351.269714,413.380157 352.054993,413.927582 352.777313,414.436707 
z"/>
<path fill="#EBEBEB" opacity="1.000000" stroke="none" 
	d="
M646.290405,489.772827 
	C649.574463,491.715363 652.534790,493.475098 655.951477,495.506042 
	C653.895508,499.564911 651.995728,503.315460 649.420898,508.398621 
	C647.437744,501.321106 645.860168,495.691132 644.282593,490.061157 
	C644.843933,489.904114 645.405334,489.747070 646.290405,489.772827 
z"/>
<path fill="#A81B38" opacity="1.000000" stroke="none" 
	d="
M505.032349,314.999115 
	C507.898041,313.282318 510.472687,311.783203 513.047302,310.284119 
	C513.400330,310.794342 513.753418,311.304565 514.106445,311.814789 
	C510.901672,318.977051 505.390137,323.973724 498.820374,327.976898 
	C498.270081,327.591248 497.719757,327.205597 497.169434,326.819977 
	C499.693390,322.952240 502.217316,319.084534 505.032349,314.999115 
z"/>
<path fill="#A11B36" opacity="1.000000" stroke="none" 
	d="
M508.661194,327.670746 
	C510.880310,323.844452 512.784790,319.775116 515.465210,316.305176 
	C516.622620,314.806824 519.383850,314.547363 521.731689,314.343506 
	C519.673035,320.929352 514.865784,324.578918 509.377258,327.975433 
	C508.917145,327.923950 508.661194,327.670746 508.661194,327.670746 
z"/>
<path fill="#9F1A36" opacity="1.000000" stroke="none" 
	d="
M385.789490,473.234100 
	C385.706787,474.294159 385.342957,475.776672 384.928284,475.791046 
	C380.193054,475.955048 375.450043,475.895294 369.782990,475.895294 
	C374.260468,470.098480 379.099182,469.537170 385.789490,473.234100 
z"/>
<path fill="#9D1A35" opacity="1.000000" stroke="none" 
	d="
M856.912476,676.160645 
	C857.635315,678.496521 858.255310,680.467773 858.875244,682.439026 
	C858.441895,682.707153 858.008545,682.975220 857.575134,683.243347 
	C854.609131,679.595337 851.643066,675.947327 848.346680,671.893005 
	C853.549011,670.135193 855.499023,672.398315 856.912476,676.160645 
z"/>
<path fill="#EBEAEB" opacity="1.000000" stroke="none" 
	d="
M427.657043,325.999603 
	C427.450867,323.602509 427.605743,321.392090 427.790833,318.750580 
	C430.262543,319.208862 432.124084,319.553986 435.010254,320.089142 
	C431.843384,322.176086 434.103790,328.371216 427.657043,325.999603 
z"/>
<path fill="#AE1C3A" opacity="1.000000" stroke="none" 
	d="
M385.001892,432.006958 
	C384.874573,432.026215 384.701233,431.996857 384.694336,431.915833 
	C384.860809,431.864197 384.955902,431.958374 385.001892,432.006958 
z"/>
<path fill="#A11B36" opacity="1.000000" stroke="none" 
	d="
M509.042786,328.052887 
	C508.958099,328.356354 508.747803,328.530884 508.537537,328.705414 
	C508.476074,328.462402 508.414642,328.219360 508.507202,327.823547 
	C508.661194,327.670746 508.917145,327.923950 509.042786,328.052887 
z"/>
<path fill="#100B0D" opacity="1.000000" stroke="none" 
	d="
M700.639648,236.436066 
	C701.188965,237.965240 701.563904,239.160309 702.093262,240.847458 
	C693.785522,239.120102 686.041443,237.589661 678.353149,235.817291 
	C677.313416,235.577606 676.268799,234.273666 675.706970,233.208954 
	C667.179016,217.048599 658.487976,200.966248 650.388672,184.591827 
	C647.298462,178.344177 645.607544,171.404419 643.278931,164.780060 
	C643.961609,164.405624 644.644226,164.031174 645.326843,163.656723 
	C647.934937,166.906265 651.414795,169.779495 653.006775,173.467606 
	C662.072937,194.470932 676.967529,210.748627 693.680603,225.774918 
	C696.642761,228.438065 698.238586,232.620865 700.639648,236.436066 
z"/>
<path fill="#100B0D" opacity="1.000000" stroke="none" 
	d="
M437.635925,175.706833 
	C434.683380,185.445526 435.301178,194.115143 442.258209,201.655823 
	C443.101898,202.570343 443.508636,203.887985 444.519867,205.764877 
	C435.863770,207.873199 427.742004,209.965012 419.538971,211.664261 
	C418.764130,211.824768 416.358643,209.171204 416.595184,208.409683 
	C421.379669,193.007065 426.106140,177.522141 437.805542,165.533890 
	C438.235321,165.093506 438.844147,164.827850 439.944580,164.100876 
	C439.136169,168.255188 438.450623,171.778076 437.635925,175.706833 
z"/>
<path fill="#110B0D" opacity="1.000000" stroke="none" 
	d="
M847.138550,274.123840 
	C846.898193,272.330353 846.709106,270.927429 846.352295,268.281036 
	C856.518127,278.499084 865.222961,288.476746 867.600952,301.838776 
	C868.571655,307.293518 866.112793,313.358612 865.217346,319.126160 
	C856.829712,317.820099 853.990662,314.922150 852.941589,308.376312 
	C851.129944,297.072083 849.117798,285.800018 847.138550,274.123840 
z"/>
<path fill="#140C0E" opacity="1.000000" stroke="none" 
	d="
M478.516724,317.297546 
	C477.053375,322.152313 476.334167,327.187286 473.760986,330.956573 
	C468.654327,338.436890 462.525635,345.219421 456.819305,352.290344 
	C456.236359,351.944153 455.653412,351.597961 455.070435,351.251770 
	C456.360657,348.070099 457.434479,344.777191 458.997650,341.735809 
	C460.819275,338.191559 462.863983,334.721313 465.175140,331.477753 
	C470.044525,324.643829 472.866394,317.185547 473.131104,308.765564 
	C473.165436,307.673981 473.663513,306.596924 475.207031,305.296783 
	C476.278870,309.166351 477.350739,313.035919 478.516724,317.297546 
z"/>
<path fill="#160C0F" opacity="1.000000" stroke="none" 
	d="
M436.006012,155.005585 
	C439.268677,146.989960 446.178558,142.563690 452.992920,138.212051 
	C456.396179,136.038742 460.353333,134.732834 464.059967,133.034576 
	C464.449677,133.438110 464.839417,133.841660 465.229156,134.245193 
	C463.805847,136.247772 462.800018,138.887344 460.886261,140.141663 
	C452.982605,145.322021 444.803802,150.082611 436.363098,154.998795 
	C436.000092,155.000137 436.006012,155.005585 436.006012,155.005585 
z"/>
<path fill="#0E0C0D" opacity="1.000000" stroke="none" 
	d="
M407.000671,158.000946 
	C407.322479,157.772827 407.641022,157.539581 407.974609,157.330261 
	C407.987488,157.322174 408.144501,157.543747 408.234375,157.658279 
	C407.974365,157.788834 407.714355,157.919388 407.225952,158.023651 
	C406.997559,157.997360 407.000000,158.000000 407.000671,158.000946 
z"/>
<path fill="#0E0C0D" opacity="1.000000" stroke="none" 
	d="
M732.023193,381.027710 
	C732.117920,380.983704 732.194641,380.921417 732.117859,380.918640 
	C731.964355,380.978180 732.005127,381.009460 732.023193,381.027710 
z"/>
<path fill="#160C0F" opacity="1.000000" stroke="none" 
	d="
M435.998505,154.998154 
	C435.878906,155.001160 435.760925,155.006149 435.824463,155.008362 
	C436.006012,155.005585 436.000092,155.000137 435.998505,154.998154 
z"/>
<path fill="#0E0C0D" opacity="1.000000" stroke="none" 
	d="
M529.780640,139.777954 
	C529.922302,139.511566 530.177612,139.358047 530.432861,139.204529 
	C530.470154,139.441254 530.507446,139.677979 530.334717,140.013870 
	C530.124756,140.113037 529.894165,139.890823 529.780640,139.777954 
z"/>
<path fill="#0E0C0D" opacity="1.000000" stroke="none" 
	d="
M669.006104,515.015503 
	C669.109680,515.014954 669.197815,514.994141 669.120178,514.966309 
	C668.954407,514.959351 668.990723,514.995178 669.006104,515.015503 
z"/>
<path fill="#0E0C0D" opacity="1.000000" stroke="none" 
	d="
M568.025024,273.029022 
	C568.108765,272.980316 568.174500,272.913849 568.103271,272.914490 
	C567.966309,272.981567 568.007080,273.011261 568.025024,273.029022 
z"/>
<path fill="#0E0C0D" opacity="1.000000" stroke="none" 
	d="
M593.805298,297.804810 
	C593.925354,297.545715 594.144226,297.383270 594.363159,297.220825 
	C594.403748,297.446533 594.444275,297.672272 594.294434,297.995178 
	C594.104126,298.092377 593.904114,297.901459 593.805298,297.804810 
z"/>
</svg>